<svg viewBox="0 0 222.42 222.41" xmlns="http://www.w3.org/2000/svg" xmlns:xlink="http://www.w3.org/1999/xlink" id="Layer_1" overflow="hidden"><defs></defs><g><path d="M77.3 184.37C68.96 185.35 61.2 187.02 61.2 194.22 61.2 200.18 66.34 202.69 70.92 202.69 75.5 202.69 79.79 201.02 82.71 198.11 85.07 195.62 86.31 192.28 86.31 188.68L86.31 182.43C85.33 183.25 82.97 183.68 81.73 183.81L77.3 184.37Z" stroke-width="0" fill="#FFE850"/><path d="M222.42 0 0 0 0 222.41 222.42 222.41 222.42 0ZM32.43 208.24C21.04 208.24 13.32 202.41 13.32 191.6L13.32 191.18 19.57 191.18 19.57 191.47C19.57 198.54 24.71 202.7 32.47 202.7 36.63 202.7 44.55 200.9 44.55 194.23 44.55 181.33 14.86 190.49 14.86 172.03 14.86 162.73 23.51 158.57 32.12 158.57 42.24 158.57 49.14 164.4 49.14 173.83L49.14 174.25 42.89 174.25 42.89 173.83C42.89 167.74 38.6 164.13 31.66 164.13 26.79 164.13 21.12 166.2 21.12 171.76 21.12 183.81 50.79 175.36 50.79 193.96 50.79 203.81 41.58 208.24 32.44 208.24ZM87.42 206.86C86.73 204.37 86.73 199.36 86.73 199.36 84.37 204.5 78.97 208.24 70.49 208.24 60.77 208.24 54.96 202.97 54.96 194.36 54.96 181.88 66.19 180.63 77.14 179.39L79.52 179.1C83.95 178.54 86.3 177.99 86.3 173.14 86.3 166.91 82.7 164.13 74.93 164.13 68.41 164.13 63.14 166.91 63.14 173.98L63.14 174.38 56.89 174.38 56.89 173.98C56.89 163.01 65.63 158.57 75.62 158.57 86.43 158.57 92.66 162.88 92.66 173.01L92.66 198.54C92.66 200.74 93.04 205.46 93.59 206.86L87.41 206.86ZM117.81 206.86 111 206.86 94.36 159.97 101.59 159.97 114.47 199.7 127.22 159.97 133.89 159.97 117.81 206.86ZM143.48 206.86 136.96 206.86 136.96 159.97 143.48 159.97 143.48 206.86ZM144.52 147.62C144.52 147.62 144.52 147.57 144.52 147.54 144.48 149.99 142.46 151.84 140.15 151.84 137.84 151.84 135.79 149.95 135.79 147.46 135.79 145.12 137.81 143.23 140.15 143.23 142.49 143.23 144.48 145.08 144.52 147.53 144.52 147.5 144.52 147.48 144.52 147.45L144.52 147.6ZM156.38 206.86 149.86 206.86 149.86 142.2 156.38 142.2 156.38 206.86ZM169.15 206.86 162.64 206.86 162.64 142.2 169.15 142.2 169.15 206.86ZM191.97 208.24C180.47 208.24 172.75 202.41 172.75 191.6L172.75 191.18 179 191.18 179 191.47C179 198.54 184.27 202.7 191.9 202.7 196.06 202.7 204.09 200.9 204.09 194.23 204.09 181.33 174.26 190.49 174.26 172.03 174.26 162.73 182.93 158.57 191.52 158.57 201.8 158.57 208.67 164.4 208.67 173.83L208.67 174.25 202.44 174.25 202.44 173.83C202.44 167.74 198.13 164.13 191.19 164.13 186.21 164.13 180.51 166.2 180.51 171.76 180.51 183.81 210.34 175.36 210.34 193.96 210.34 203.81 201.13 208.24 191.97 208.24Z" stroke-width="0" fill="#FFE850"/></g><path d="M144.52 147.62 144.52 147.47C144.52 147.47 144.52 147.52 144.52 147.55 144.52 147.58 144.52 147.6 144.52 147.63Z" stroke-width="0" fill="#CE181E"/><g><path d="M21.11 171.76C21.11 166.2 26.78 164.13 31.65 164.13 38.59 164.13 42.88 167.73 42.88 173.83L42.88 174.25 49.13 174.25 49.13 173.83C49.13 164.4 42.23 158.57 32.11 158.57 23.5 158.57 14.85 162.73 14.85 172.03 14.85 190.49 44.54 181.33 44.54 194.23 44.54 200.9 36.62 202.7 32.46 202.7 24.7 202.7 19.56 198.54 19.56 191.47L19.56 191.18 13.31 191.18 13.31 191.6C13.31 202.41 21.03 208.24 32.42 208.24 41.56 208.24 50.77 203.81 50.77 193.96 50.77 175.36 21.1 183.82 21.1 171.76Z" stroke-width="0" fill="#CE181E"/><path d="M92.67 173C92.67 162.88 86.44 158.56 75.63 158.56 65.64 158.56 56.9 163.01 56.9 173.97L56.9 174.37 63.15 174.37 63.15 173.97C63.15 166.89 68.42 164.12 74.94 164.12 82.7 164.12 86.31 166.9 86.31 173.13 86.31 177.98 83.95 178.54 79.53 179.09L77.15 179.38C66.21 180.62 54.97 181.87 54.97 194.35 54.97 202.96 60.78 208.23 70.5 208.23 78.98 208.23 84.38 204.5 86.74 199.35 86.74 199.35 86.74 204.36 87.43 206.85L93.61 206.85C93.05 205.45 92.68 200.73 92.68 198.53L92.68 173ZM86.31 188.68C86.31 192.29 85.06 195.62 82.71 198.11 79.8 201.03 75.64 202.69 70.92 202.69 66.2 202.69 61.2 200.18 61.2 194.22 61.2 187.01 68.96 185.34 77.3 184.37L81.73 183.81C82.98 183.68 85.33 183.25 86.31 182.43L86.31 188.68Z" stroke-width="0" fill="#CE181E"/><path d="M127.21 159.97 114.47 199.7 101.59 159.97 94.36 159.97 111 206.86 117.8 206.86 133.88 159.97 133.33 159.97 127.21 159.97Z" stroke-width="0" fill="#CE181E"/><path d="M140.14 143.24C137.8 143.24 135.78 145.13 135.78 147.47 135.78 149.96 137.8 151.85 140.14 151.85 142.48 151.85 144.47 150 144.51 147.55 144.47 145.1 142.45 143.25 140.14 143.25Z" stroke-width="0" fill="#CE181E"/><path d="M136.95 159.97 136.95 206.86 143.47 206.86 143.47 159.97 143.05 159.97 136.95 159.97Z" stroke-width="0" fill="#CE181E"/><path d="M149.85 142.2 149.85 206.86 156.37 206.86 156.37 142.2 155.95 142.2 149.85 142.2Z" stroke-width="0" fill="#CE181E"/><path d="M162.63 142.2 162.63 206.86 169.14 206.86 169.14 142.2 168.72 142.2 162.63 142.2Z" stroke-width="0" fill="#CE181E"/><path d="M180.51 171.76C180.51 166.2 186.2 164.13 191.19 164.13 198.13 164.13 202.44 167.73 202.44 173.83L202.44 174.25 208.67 174.25 208.67 173.83C208.67 164.4 201.8 158.57 191.52 158.57 182.93 158.57 174.26 162.73 174.26 172.03 174.26 190.49 204.09 181.33 204.09 194.23 204.09 200.9 196.06 202.7 191.9 202.7 184.27 202.7 179 198.54 179 191.47L179 191.18 172.75 191.18 172.75 191.6C172.75 202.41 180.47 208.24 191.97 208.24 201.14 208.24 210.34 203.81 210.34 193.96 210.34 175.36 180.51 183.82 180.51 171.76Z" stroke-width="0" fill="#CE181E"/></g></svg>